<?xml version="1.0" encoding="UTF-8" standalone="no"?>
<!DOCTYPE svg PUBLIC "-//W3C//DTD SVG 1.1//EN" "http://www.w3.org/Graphics/SVG/1.1/DTD/svg11.dtd">
<svg version="1.1" xmlns="http://www.w3.org/2000/svg" xmlns:xlink="http://www.w3.org/1999/xlink" preserveAspectRatio="xMidYMid meet" viewBox="0 0 1920 1080" width="1920" height="1080"><defs><path d="M0 1080L1920 1080L1920 150.03L1666.05 209.84L1613.97 218.18C1557.73 231.31 1522.57 239.52 1508.51 242.81C1446 257.4 1388.55 288.52 1342.17 332.9C1340.3 334.69 1335.64 339.16 1328.17 346.3C1312.5 373.01 1302.71 389.7 1298.8 396.37C1243.36 490.86 1166.94 571.33 1075.44 631.56C1049.93 648.36 1103.26 613.25 1075.44 631.56C992.44 686.2 894.54 713.77 795.21 710.47C774.23 709.78 825.74 711.49 795.21 710.47C725.6 708.16 656.65 696.2 590.33 674.92C580.93 671.9 602.52 678.83 580.57 671.79C556.99 664.22 531.25 667.61 510.43 681.02C494.89 691.03 517.01 676.78 510.43 681.02C459.69 713.68 400.63 731.05 340.29 731.05C332.11 731.05 358.77 731.05 340.29 731.05C313.08 731.05 285.94 728.42 259.24 723.19C237.87 719 200.96 711.77 176.36 706.95C160.68 703.88 146.1 696.68 134.14 686.1C122.95 676.19 137.79 689.33 134.14 686.1C96.91 653.16 62.94 616.72 32.68 577.28C28.33 571.6 17.43 557.39 0 534.67L0 1080Z" id="ahpqHXkZ"></path></defs><g><g><g><use xlink:href="#ahpqHXkZ" opacity="1" fill="#ffffff" fill-opacity="1"></use><g><use xlink:href="#ahpqHXkZ" opacity="1" fill-opacity="0" stroke="#000000" stroke-width="1" stroke-opacity="1"></use></g><g><filter id="shadow9626721" x="-76" y="74.03" width="2072" height="1088.97" filterUnits="userSpaceOnUse" primitiveUnits="userSpaceOnUse"><feFlood></feFlood><feComposite in2="SourceAlpha" operator="out"></feComposite><feGaussianBlur stdDeviation="5.66"></feGaussianBlur><feOffset dx="0" dy="7" result="afterOffset"></feOffset><feFlood flood-color="#020202" flood-opacity="0.8"></feFlood><feComposite in2="afterOffset" operator="in"></feComposite><feMorphology operator="dilate" radius="0"></feMorphology><feComposite in2="SourceAlpha" operator="in"></feComposite></filter><path d="M0 1080L1920 1080L1920 150.03L1666.05 209.84L1613.97 218.18C1557.73 231.31 1522.57 239.52 1508.51 242.81C1446 257.4 1388.55 288.52 1342.17 332.9C1340.3 334.69 1335.64 339.16 1328.17 346.3C1312.5 373.01 1302.71 389.7 1298.8 396.37C1243.36 490.86 1166.94 571.33 1075.44 631.56C1049.93 648.36 1103.26 613.25 1075.44 631.56C992.44 686.2 894.54 713.77 795.21 710.47C774.23 709.78 825.74 711.49 795.21 710.47C725.6 708.16 656.65 696.2 590.33 674.92C580.93 671.9 602.52 678.83 580.57 671.79C556.99 664.22 531.25 667.61 510.43 681.02C494.89 691.03 517.01 676.78 510.43 681.02C459.69 713.68 400.63 731.05 340.29 731.05C332.11 731.05 358.77 731.05 340.29 731.05C313.08 731.05 285.94 728.42 259.24 723.19C237.87 719 200.96 711.77 176.36 706.95C160.68 703.88 146.1 696.68 134.14 686.1C122.95 676.19 137.79 689.33 134.14 686.1C96.91 653.16 62.94 616.72 32.68 577.28C28.33 571.6 17.43 557.39 0 534.67L0 1080Z" id="a8sJK4bFX" fill="white" fill-opacity="1" filter="url(#shadow9626721)"></path></g></g></g></g></svg>