<?xml version="1.0" encoding="UTF-8" standalone="no"?>
<!DOCTYPE svg PUBLIC "-//W3C//DTD SVG 1.1//EN" "http://www.w3.org/Graphics/SVG/1.1/DTD/svg11.dtd">
<svg version="1.1" xmlns="http://www.w3.org/2000/svg" xmlns:xlink="http://www.w3.org/1999/xlink" preserveAspectRatio="xMidYMid meet" viewBox="0 0 640 640" width="640" height="640"><defs><path d="M640 61.15L525.15 113.37C486.39 110.96 462.17 109.45 452.48 108.84C435.64 107.79 419.8 116.88 412.2 131.94C407.75 140.76 414.67 127.06 412.15 132.04C397.4 161.3 385.75 192.02 377.39 223.7C375.42 231.18 379.87 214.32 377.34 223.89C370.85 248.51 359.97 271.74 345.21 292.49C335.6 305.98 329.25 314.91 319.68 328.36C305.05 348.91 284.37 364.37 260.52 372.57C252.7 375.26 267.74 370.09 260.37 372.62C234.73 381.44 207.47 384.51 180.51 381.63C172.93 380.82 188.57 382.49 180.35 381.61C155.69 378.98 132.29 369.4 112.86 353.99C107.22 349.52 118.72 358.64 112.75 353.9C94.24 339.23 79.27 320.58 68.93 299.34C59.74 280.45 36.77 233.23 0 157.68L0 638.08L640.37 640L640 61.15Z" id="c5YqkAGFw"></path></defs><g><g><g><use xlink:href="#c5YqkAGFw" opacity="1" fill="#ffffff" fill-opacity="1"></use></g></g></g></svg>